<svg width="20" height="66" viewBox="0 0 20 66" fill="none" xmlns="http://www.w3.org/2000/svg">
<path d="M15.203 1.3967C15.4956 0.801721 16.0126 0.34735 16.6402 0.133544C17.2678 -0.0802616 17.9547 -0.0359881 18.5496 0.256625C19.1446 0.549238 19.599 1.06622 19.8128 1.69384C20.0266 2.32147 19.9823 3.00832 19.6897 3.6033C19.1897 4.61997 18.6897 5.63663 18.1897 6.6533C13.6897 15.8033 9.18973 24.9533 4.68972 34.1033C4.68972 34.1033 4.68972 34.1033 4.68972 34.1033V31.8967C9.18973 41.0467 13.6897 50.1967 18.1897 59.3467C18.6897 60.3634 19.1897 61.38 19.6897 62.3967C19.9823 62.9917 20.0266 63.6785 19.8128 64.3062C19.599 64.9338 19.1446 65.4508 18.5496 65.7434C17.9547 66.036 17.2678 66.0803 16.6402 65.8665C16.0126 65.6526 15.4956 65.1983 15.203 64.6033C15.203 64.6033 15.203 64.6033 15.203 64.6033C14.703 63.5866 14.203 62.57 13.703 61.5533C9.20297 52.4033 4.70298 43.2533 0.202975 34.1033C0.202975 34.1033 0.202975 34.1033 0.202975 34.1033C-0.0676535 33.553 -0.0676535 32.447 0.202975 31.8967C4.70298 22.7467 9.20298 13.5967 13.703 4.4467C14.203 3.43003 14.703 2.41337 15.203 1.3967Z" fill="#B6C5CE"/>
</svg>
