<svg width="20" height="66" viewBox="0 0 20 66" fill="none" xmlns="http://www.w3.org/2000/svg">
<path d="M4.74337 1.3967C4.45076 0.801721 3.93378 0.34735 3.30616 0.133544C2.67853 -0.0802616 1.99168 -0.0359881 1.3967 0.256625C0.801721 0.549238 0.34735 1.06622 0.133544 1.69384C-0.0802616 2.32147 -0.035988 3.00832 0.256625 3.6033C0.756625 4.61997 1.25663 5.63663 1.75663 6.6533C6.25663 15.8033 10.7566 24.9533 15.2566 34.1033C15.2566 34.1033 15.2566 34.1033 15.2566 34.1033V31.8967C10.7566 41.0467 6.25663 50.1967 1.75663 59.3467C1.25663 60.3634 0.756624 61.38 0.256625 62.3967C-0.035988 62.9917 -0.0802616 63.6785 0.133544 64.3062C0.34735 64.9338 0.801721 65.4508 1.3967 65.7434C1.99168 66.036 2.67853 66.0803 3.30616 65.8665C3.93378 65.6526 4.45076 65.1983 4.74337 64.6033C4.74337 64.6033 4.74337 64.6033 4.74337 64.6033C5.24337 63.5866 5.74338 62.57 6.24338 61.5533C10.7434 52.4033 15.2434 43.2533 19.7434 34.1033C19.7434 34.1033 19.7434 34.1033 19.7434 34.1033C20.014 33.553 20.014 32.447 19.7434 31.8967C15.2434 22.7467 10.7434 13.5967 6.24337 4.4467C5.74338 3.43003 5.24337 2.41337 4.74337 1.3967Z" fill="#B6C5CE"/>
</svg>
